<svg xmlns="http://www.w3.org/2000/svg" x="0px" y="0px" viewBox="11.773000717163086 11.194999694824219 40.454002380371094 40.11000061035156" enable-background="new 0 0 64 64">
<g>
	
		<path fill="#FFFFFF" stroke="#818CF8FF" stroke-width="1" stroke-linecap="round" stroke-linejoin="round" stroke-miterlimit="10" d="   M41.609,50.805H22.391c-5.588,0-10.118-4.53-10.118-10.118V26.935c0-5.588,4.53-10.118,10.118-10.118h19.218   c5.588,0,10.118,4.53,10.118,10.118v13.752C51.727,46.275,47.197,50.805,41.609,50.805z"/>
</g>
<g>
	<g>
		
			<path fill="#E6E9EC" stroke="#000000" stroke-width="1" stroke-linecap="round" stroke-linejoin="round" stroke-miterlimit="10" d="    M25.169,11.695c-0.827,0-1.5,0.673-1.5,1.5v7.731c0,0.827,0.673,1.5,1.5,1.5s1.5-0.673,1.5-1.5v-7.731    C26.669,12.368,25.997,11.695,25.169,11.695z"/>
		
			<path fill="#E6E9EC" stroke="#000000" stroke-width="1" stroke-linecap="round" stroke-linejoin="round" stroke-miterlimit="10" d="    M37.637,11.695c-0.827,0-1.5,0.673-1.5,1.5v7.731c0,0.827,0.673,1.5,1.5,1.5s1.5-0.673,1.5-1.5v-7.731    C39.137,12.368,38.464,11.695,37.637,11.695z"/>
	</g>
</g>
<g>
	<path fill="none" stroke="#536DFE" stroke-width="1" stroke-linecap="round" stroke-linejoin="round" stroke-miterlimit="10" d="   M32,31.543h9.962 M32,38.647h9.962"/>
	<path fill="none" stroke="#536DFE" stroke-width="1" stroke-linecap="round" stroke-linejoin="round" stroke-miterlimit="10" d="   M22.337,30.331l1.635,1.635l3.271-3.271 M22.337,38.647l1.635,1.635l3.271-3.271"/>
</g>
<g>
	<path fill="none" stroke="#818CF8FF" stroke-width="1" stroke-linecap="round" stroke-linejoin="round" stroke-miterlimit="10" d="   M25.169,13.195v7.731 M37.637,13.195v7.731"/>
</g>
</svg>